<svg width="188" height="48" viewBox="0 0 188 48" fill="none" xmlns="http://www.w3.org/2000/svg">
  <defs>
    <linearGradient id="servio-grad" x1="4" y1="4" x2="44" y2="44" gradientUnits="userSpaceOnUse">
      <stop offset="0" stop-color="#2A8CFF"/>
      <stop offset="0.6" stop-color="#1F6FE8"/>
      <stop offset="1" stop-color="#5F2FD6"/>
    </linearGradient>
  </defs>
  <g transform="translate(2 2)">
    <circle cx="20" cy="20" r="18.5" stroke="url(#servio-grad)" stroke-width="3"/>
    <path d="M34 8C30.6 5.6 26 4.3 21.4 4.6C14.6 5.1 8.9 8.8 6.3 14.7C3.9 20.1 4.3 26.1 8 30.1C11.1 33.5 16 35.1 21 34.8C28 34.4 33.8 30.6 36.3 24.6C36.6 23.8 36.1 22.9 35.2 22.7C34.7 22.5 34.2 22.6 33.8 22.9C30.8 24.7 27.1 25.8 23.3 26C18.9 26.2 14.8 25 11.9 22.7C9.6 20.8 8.6 18.3 9.1 15.8C9.9 12.1 13.6 8.9 18.7 8.1C23.2 7.4 27.9 8.5 31.4 10.9C32.2 11.5 33.2 11.3 33.8 10.6C34.2 10 34.3 9.2 34 8Z" fill="url(#servio-grad)"/>
  </g>
  <text x="58" y="32" fill="#15145D" font-family="Inter, Manrope, Arial, sans-serif" font-size="38" font-weight="500">Servio</text>
</svg>
